<?xml version="1.0" standalone="no"?>
<!DOCTYPE svg PUBLIC "-//W3C//DTD SVG 20010904//EN"
 "http://www.w3.org/TR/2001/REC-SVG-20010904/DTD/svg10.dtd">
<svg version="1.0" xmlns="http://www.w3.org/2000/svg"
 width="900.000000pt" height="900.000000pt" viewBox="0 0 900.000000 900.000000"
 preserveAspectRatio="xMidYMid meet">
<metadata>
Created by potrace 1.16, written by Peter Selinger 2001-2019
</metadata>
<g transform="translate(0.000000,900.000000) scale(0.100000,-0.100000)"
fill="#E30613" stroke="none">
<path d="M0 4500 l0 -4500 4500 0 4500 0 0 4500 0 4500 -4500 0 -4500 0 0
-4500z m7300 863 c0 -1105 -4 -1792 -10 -1868 -105 -1223 -975 -2232 -2170
-2514 -231 -55 -337 -66 -645 -66 -243 0 -299 3 -421 23 -607 97 -1144 370
-1569 797 -381 382 -644 860 -758 1375 -66 294 -61 141 -64 2163 l-4 1837
2821 0 2820 0 0 -1747z"/>
<path d="M1860 5258 c0 -1092 4 -1692 11 -1768 47 -508 244 -995 565 -1400 87
-109 294 -316 404 -404 374 -299 826 -491 1310 -557 123 -17 525 -18 650 -1
588 78 1110 334 1526 747 445 443 714 1026 764 1659 6 80 10 739 10 1752 l0
1624 -2620 0 -2620 0 0 -1652z m1230 883 l0 -128 -41 -6 c-23 -3 -46 -11 -50
-19 -5 -7 -9 -171 -9 -364 0 -347 0 -351 23 -394 64 -122 270 -122 334 0 23
43 23 47 23 396 0 392 1 384 -66 384 l-34 0 0 130 0 130 295 0 295 0 0 -130 0
-130 -33 0 c-18 0 -42 -6 -53 -14 -18 -14 -19 -33 -24 -418 -6 -387 -7 -405
-28 -458 -51 -126 -144 -207 -296 -257 -74 -24 -95 -27 -241 -27 -141 -1 -169
2 -235 22 -179 56 -283 158 -325 319 -12 46 -15 130 -15 418 0 410 0 408 -68
413 l-42 3 0 123 c0 67 3 126 7 129 3 4 136 7 295 7 l288 0 0 -129z m1820 101
c146 -52 222 -133 250 -267 27 -133 -8 -244 -106 -334 l-64 -59 31 -13 c112
-46 189 -162 197 -298 11 -189 -87 -333 -267 -393 -63 -21 -84 -23 -499 -26
l-433 -3 3 128 3 128 35 5 c20 4 41 10 48 14 9 5 12 110 12 436 0 414 -1 430
-19 440 -11 5 -33 10 -50 10 l-31 0 0 131 0 131 413 -4 c399 -3 414 -4 477
-26z m1544 6 c8 -30 8 -362 0 -382 -5 -13 -25 -16 -110 -16 l-104 0 0 28 c0
16 -6 37 -14 48 -13 17 -30 19 -200 22 l-186 3 0 -105 0 -106 205 0 205 0 0
-160 0 -160 -205 0 -205 0 0 -125 0 -125 169 0 c93 0 182 5 196 10 17 7 32 24
42 50 l16 40 92 0 c88 0 93 -1 99 -22 8 -30 8 -362 0 -382 -6 -14 -63 -16
-550 -16 l-544 0 0 130 0 130 34 0 c68 0 66 -15 66 450 0 465 2 450 -66 450
l-34 0 0 130 0 130 544 0 544 0 6 -22z m-346 -1855 c21 -39 36 -177 36 -328 1
-183 12 -148 -129 -405 -111 -204 -156 -271 -230 -350 -103 -108 -195 -219
-195 -233 0 -6 -3 -23 -7 -37 -7 -28 125 106 189 193 21 27 61 66 90 85 29 19
107 87 173 152 101 98 135 124 213 165 51 26 118 71 149 98 52 49 56 50 69 32
8 -10 14 -31 14 -46 0 -15 7 -55 15 -88 22 -84 10 -118 -81 -241 -132 -178
-213 -249 -376 -329 -79 -38 -99 -44 -215 -56 -177 -20 -199 -24 -216 -43 -20
-22 -33 -55 -69 -182 -16 -58 -47 -142 -68 -188 -39 -82 -39 -83 -12 -63 15
10 94 78 175 150 81 72 158 137 170 143 13 8 82 16 172 20 83 3 180 10 218 14
42 4 67 3 67 -3 0 -6 -51 -52 -112 -104 -62 -52 -145 -124 -185 -161 -105 -97
-222 -133 -457 -142 -65 -3 -119 -6 -120 -8 -1 -2 -19 -27 -40 -57 l-38 -54
46 27 c61 36 116 44 337 50 102 3 230 9 285 12 88 6 102 5 107 -10 4 -9 1 -16
-6 -16 -7 0 -30 -30 -52 -66 -22 -36 -68 -92 -102 -124 -35 -31 -63 -62 -63
-68 0 -17 -69 -49 -125 -57 -27 -5 -62 -16 -79 -26 -33 -19 -134 -39 -199 -39
-21 0 -73 14 -115 32 -42 18 -83 31 -90 30 -17 -4 -78 35 -97 61 -11 16 -19
19 -29 12 -234 -166 -398 -232 -556 -223 -90 5 -183 44 -249 103 -41 38 -49
61 -31 94 18 35 39 33 59 -8 25 -49 88 -105 137 -122 66 -22 188 -16 279 15
95 33 198 88 220 119 19 27 19 87 1 130 -7 18 -32 53 -55 79 -58 66 -108 152
-131 227 -22 69 -26 184 -10 241 6 19 19 83 29 143 11 59 31 131 44 161 58
127 181 287 208 271 14 -9 11 -65 -6 -121 -22 -74 -19 -136 17 -280 l32 -132
25 33 c14 19 57 69 95 112 37 43 73 88 79 101 17 37 32 19 38 -49 4 -36 14
-89 23 -119 21 -69 20 -104 -3 -244 -22 -126 -31 -150 -100 -246 -56 -79 -73
-106 -89 -145 -10 -24 -1 -19 47 32 177 184 293 470 292 715 0 73 -19 101
-128 191 -139 113 -133 100 -158 317 -9 74 -22 160 -30 191 -21 81 -19 106 19
221 19 57 44 141 57 188 12 47 30 103 40 126 21 50 79 118 90 107 5 -5 11 -53
14 -108 17 -281 35 -370 105 -528 51 -116 76 -223 66 -287 l-5 -35 14 30 c8
17 14 55 15 85 1 69 30 203 64 293 49 127 89 197 173 298 46 55 104 131 130
167 51 74 93 122 105 122 4 0 11 -8 16 -17z"/>
<path d="M4500 5845 l0 -105 114 0 c99 0 117 3 139 20 32 25 43 76 27 125 -17
53 -50 65 -175 65 l-105 0 0 -105z"/>
<path d="M4500 5295 l0 -125 121 0 c171 0 209 23 209 125 0 102 -38 125 -209
125 l-121 0 0 -125z"/>
<path d="M6072 4216 c-12 -33 -34 -100 -48 -149 -33 -118 -114 -295 -170 -374
-25 -35 -64 -103 -86 -150 -45 -95 -130 -315 -124 -320 4 -4 131 130 181 192
18 22 65 99 103 170 39 72 91 166 116 210 26 44 51 96 56 115 11 39 12 224 2
310 l-7 55 -23 -59z"/>
<path d="M5389 4065 c-1 -27 -2 -59 -1 -70 0 -11 3 -67 7 -125 10 -179 45
-344 127 -604 19 -60 26 -21 27 145 1 154 -12 218 -67 324 -32 63 -62 173 -76
281 -12 87 -14 93 -17 49z"/>
<path d="M6395 3573 c-60 -78 -214 -210 -350 -301 -80 -52 -280 -199 -317
-231 -9 -8 25 -5 142 9 111 13 256 88 355 181 83 79 220 253 237 299 10 30 4
95 -10 103 -4 3 -29 -25 -57 -60z"/>
<path d="M4999 2928 c-19 -143 -18 -409 2 -468 l16 -45 43 85 c37 73 43 93 42
142 -1 55 -68 365 -82 381 -4 5 -14 -38 -21 -95z"/>
<path d="M5336 2865 c-28 -64 -42 -107 -86 -265 -27 -96 -52 -184 -56 -195 -8
-24 51 52 90 114 20 31 33 75 47 154 20 111 23 233 5 192z"/>
<path d="M5997 2704 c-38 -19 -118 -55 -179 -80 -61 -25 -145 -63 -187 -85
-42 -21 -83 -39 -90 -39 -10 0 -12 -3 -5 -10 6 -6 44 -5 109 5 157 24 223 51
291 119 22 23 62 60 90 84 27 23 47 42 44 41 -3 0 -36 -16 -73 -35z"/>
<path d="M5941 2294 c-84 -59 -404 -160 -541 -170 -50 -4 -93 -10 -95 -14 -2
-3 17 -17 43 -29 50 -25 142 -44 142 -30 0 5 20 9 44 9 52 0 102 16 110 36 3
9 21 14 48 15 24 1 55 4 70 8 28 6 156 117 190 164 22 31 21 33 -11 11z"/>
</g>
</svg>
